<svg enable-background="new 0 0 285.5 174.6" viewBox="0 0 285.5 174.6" xmlns="http://www.w3.org/2000/svg"><g fill="#071f2c"><path d="m30.7 118.8c.1-.1.2-.1.2.1-.6 2.2-4.9 7.1-13 7.1-12.1-.1-17.9-9.4-17.9-17.8 0-10.6 8.1-17.2 17.7-17.2 4.7 0 8.9 1.4 11.8 2.9 0 0-.1 7.8-.1 7.9 0 .2-.1.2-.1.1-2.2-5.1-6-9.2-11.9-9.2-7.1 0-12.2 6.6-12.2 14 0 9 7.6 16.5 15 16.5 6.4 0 9.5-3.7 10.5-4.4zm253 0v-27.7s0-.2-.1-.2c-.9.2-5.9 1.3-6.2 1.4-.4.1-.3.2-.2.3.6.7 1.6 1.6 1.6 4.3v19c0 .2 0 .5-.1.6-1.2 4.1-5.1 7.4-10.1 7.4-6.4 0-8.8-5.6-8.7-11.4v-21.1s0-.2-.2-.1c-1 .2-6.1 1-6.2 1.1-.1 0-.2.1 0 .2.4.5 1.5 1.7 1.5 3.6v14.3c-.3 14.3 8.8 15.4 13.8 15.4 3.3 0 7-1.3 9.9-3.7.1-.1.2 0 .2.1s.2 2.3.3 3c0 .2 0 .2.2.2 1-.2 5.7-1.1 6.2-1.2.2 0 .2-.2 0-.3-.5-.4-1.9-1.4-1.9-5.2zm-244.8 1.8.1-46s0-.1-.1-.1-.2 0-.3 0c0 0-5.4 1-5.4 1s-.5.1-.8.1c-.3.1-.2.3 0 .4.2 0 .6.5.6.5.8 1.1 1 1.7 1 4v40.8c-.1 2.6-1.6 4.1-1.7 4.2s-.1.2 0 .2h4.2s4.4 0 4.5 0 .1-.1 0-.2c-.1-.2-2-1.3-2.1-4.9zm78.8-.9c0-2.2-.1-37.8-.1-37.8v-7.4s0-.2-.2-.2c-1.2.2-7 1.2-7.2 1.2s-.2.2 0 .3c.2 0 .7.5.9.7 1.3 1.1 1.3 3.5 1.3 4v13.3s0 .3-.3.1c-2.1-1.6-5.9-2.9-9.6-2.9-9.3 0-16.6 6.7-16.8 17.1-.2 10.9 7.8 17.8 16.2 17.8 6.4 0 9.2-4.7 9.3-5.8 0-.3-.1-.2-.2-.2-.5.6-2.6 3.3-7 3.3-6.8 0-13.4-5.9-13.4-16.7 0-7 4.2-13.8 11.9-13.8 5.3 0 9.9 4.6 9.9 9.4v19.1c0 2.5-1.3 3.7-1.8 4.2-.1.1-.1.2 0 .2h4.3 4.2c.1 0 .1-.1 0-.2-.4-.7-1.4-2.1-1.4-5.7zm63.8-28.7c-3.9 0-7.5 1.4-9.9 3.1-.2.1-.2-.1-.2-.2s-.1-2.8-.1-2.8 0-.1-.2-.1c-.9.2-6.3 1.2-6.6 1.3s-.2.3 0 .4c.1.1.4.4.4.4 1.4 1.6 1.3 3.9 1.3 3.9v41.3c0 2.3-1.2 3.7-1.9 4.2-.1.1-.1.2 0 .2h4.5 4.5c.1 0 .1-.2 0-.2-1.3-.6-1.9-2.2-1.9-5.7 0 0 0-36 0-36.2 0-.5.1-.8.2-.9 1.5-3.4 4.8-6.7 9.9-6.7 6.4 0 11.5 5.3 11.5 13.7 0 12.1-7.9 16.6-12.7 16.6-4.6 0-7.2-3-7.4-3.2-.1-.1-.2-.1-.1.2.1.2 1.6 5.5 9.4 5.5s15.7-6.6 15.7-18c-.1-10.7-8.2-16.8-16.4-16.8zm-116.7-11.5c-.7 0-3.9 0-5.5 0-.2 0-.3.1-.3.1-.1.1-5 6.3-7.4 9.2-.1.1 0 .1.1.1h1.6c.1 0 .1 0 .1-.1 2.2-1.7 11.3-9.1 11.4-9.2 0 0 .1-.1 0-.1zm-10.5 39.4c.1.2.2.1.2-.1 0-.3-.6-2.5-.1-5.3 1.3-6.6 6.4-9.4 16.1-14 .2-.1.5-.1.3-.5-1.2-2.1-1.8-2.6-2.3-3.2-2.4-2.8-6.1-4.8-10.6-4.8-7.9 0-15.5 5.8-15.5 16.1 0 11.5 8 18.5 16.7 18.5 7.7 0 11.7-4.8 12.2-6.9.1-.2 0-.3-.2-.2-.3.3-3.8 4.4-8.9 4.4-9.1 0-14.8-7.9-14.8-15.9 0-7.6 3.7-14.6 10.3-14.6 5.3 0 7.7 4.9 7.7 5 .1.2.1.2-.1.3-.1.1-.5.3-.8.4-11.3 5.9-15.3 12.8-10.2 20.8zm78.8 0c.1.2.2.1.2-.1 0-.3-.6-2.5-.1-5.3 1.3-6.6 6.4-9.4 16.1-14 .2-.1.5-.1.3-.5-1.2-2.1-1.8-2.6-2.3-3.2-2.4-2.8-6.1-4.8-10.6-4.8-7.9 0-15.5 5.8-15.5 16.1 0 11.5 8 18.5 16.7 18.5 7.7 0 11.7-4.8 12.2-6.9.1-.2 0-.3-.2-.2-.3.3-3.8 4.4-8.9 4.4-9.1 0-14.8-7.9-14.8-15.9 0-7.6 3.7-14.6 10.3-14.6 5.3 0 7.7 4.9 7.7 5 .1.2.1.2-.1.3-.1.1-.5.3-.8.4-11.3 5.9-15.3 12.8-10.2 20.8zm90.5 3.4c-1.1.4-2.3.7-3.6.7-9.1 0-14.8-7.9-14.8-15.9 0-7.6 3.7-14.6 10.3-14.6 5.3 0 7.7 4.9 7.7 5 .1.2.1.2-.1.3-.1.1-.5.3-.8.4-11.5 5.7-15.4 12.6-10.4 20.6.1.2.2.1.2-.1 0-.3-.6-2.5-.1-5.3 1.3-6.6 6.4-9.4 16.1-14 .2-.1.5-.1.3-.5-1.2-2.1-1.8-2.6-2.3-3.2-2.4-2.8-6.1-4.8-10.7-4.8-7.9 0-15.5 5.8-15.5 16.1 0 11.5 8 18.5 16.7 18.5 3.4 0 6.1-.9 8-2.2.1-.1.1-.1.2 0s3 2.4 7.3 2.4c8.5 0 10.5-5.6 10.7-7.1 0-.3-.2-.2-.3 0-.1.3-2.5 4.4-9 4.4-5.9 0-7-4.6-7-6.1 0-.9 0-5.3 6.8-6.4 3.9-.6 7.5-1.2 10.3-3.1.1 0 .2 0 .2.1v15.2 2.5c0 .3.1.3.3.3s5.8-1.3 6.9-1.5c.1 0 .1-.1 0-.2-1.2-.4-2.1-1.8-2.1-4.8 0-.5 0-8.2 0-11.5 0-2.3 0-4.7-.2-7-.2-2.5-.8-5.3-2.9-7.2-1.8-1.5-3.9-2.6-6.6-2.6-4.2 0-7 2-7.6 2.6-.2.1 0 .3 0 .3l1.7 2.4s.1.1.2 0c.5-.7 2-3.4 5.4-3.4 2.2 0 5.4.5 5.4 6.2 0 1.6-.1 3.1-.5 4.2-1 2.5-2.1 3.8-9.4 4.4-3.3.3-6.4.9-8.3 1.8-4.4 2.1-4.5 6.3-4.5 7.3 0 2.7 1.3 4.7 1.7 5.2.3.4.4.6.3.6zm-152.1 45.7c0 .6 0 4.4-3.8 5.9-1.1.4-2.5.6-4.3.6-1.2 0-2.1 0-3.1 0-.8 0-1.6 0-1.7 0 0 0-.1 0-.1-.1 0 0 0-.1.1-.1v-.1c0-.1 0-19.6 0-20.4s0-1.3 0-1.4 0-.2.1-.1h1 2.5c1.4 0 3.1.1 4.1.5 2.8 1.1 3.5 3.5 3.5 4.7 0 3.4-2.6 4.8-2.7 4.9s-.1.1 0 .2c.3 0 4.4 1 4.4 5.4zm-10.7-6.2c0 .2 0 .3.1.3h4.2c.3 0 .4-.1.5-.2.9-.6 2.2-1.8 2.2-4.2 0-2.8-2-3.9-4.5-3.9-.5 0-2.2 0-2.3 0s-.2 0-.2.2zm8.4 6.3c0-1.5-.8-4.3-4.5-4.5-1.4-.1-3.9-.1-3.9-.1-.1 0-.1 0-.1.1v9.2c0 .1 0 .2.1.2h3.1c.6 0 2.4-.1 3.4-.9 1.1-.8 1.9-2.3 1.9-4zm80.6-15.9v1.6 10.8 1c.1 1.5.2 4 1.7 6.1 1.4 2 4.7 3.1 7.1 3.1 3.8 0 6.9-1.7 7.9-4.4.9-2.2.7-3.9.8-5.7 0-.7 0-10.8 0-12.3 0-.1 0-.1 0-.2s-.1 0-.2 0-.4 0-.6 0c-.4 0-.8 0-.8 0-.1 0 0 .2 0 .3v12.2c0 .5.1 1.8-.2 3.2-.4 2.5-2.1 5.4-6.7 5.4-3.1 0-5.2-1.5-6.1-3.5-.8-1.8-.8-4.7-.8-5.1s0-7.6 0-10.8c0-.9 0-1.6 0-1.6 0-.1 0-.1-.1-.1 0 0-.1 0-.3 0-.1 0-.3 0-.5 0s-.3 0-.6 0c-.1 0-.3 0-.4 0s-.3 0-.3 0c.1-.1.1-.1.1 0zm-61 22.2c0 .1 0 .1 0 0 .4.1.4 0 .5 0h.9 4.6 2.4 3s.1 0 .1-.1.1-.4.2-.8c.1-.3.2-.6.2-.6 0-.1 0-.1 0-.1s-1.4 0-3.2 0c-1 0-1.9 0-2.9-.1-1.8 0-3.4 0-3.4 0-.1 0-.1 0-.1-.1v-9.1c0-.1 0-.1.1-.1h4.8 2.1 1.2c.1 0 .1-.1.1-.1s0-.4 0-.8c0-.3 0-.6 0-.6s0-.1-.1-.1c-.8 0-1.4 0-1.7 0s-6.3 0-6.4 0-.1 0-.1-.1 0-2.4 0-4.6c0-1 0-3.5 0-3.5 0-.1 0-.1.1-.1h6.4 2s.1 0 .1-.1 0-.3 0-.6 0-.6 0-.6c0-.1.1-.2 0-.2-.5 0-4.6 0-7.5 0-.8 0-1.5 0-1.9 0-.6 0-.9 0-1.2 0-.1 0-.1.1 0 .2v1.4c0 1.1-.1 20.5-.1 20.6-.2.2-.2.2-.2.2zm94.6-22.3c-.1 0-.2-.1-.3.1 0 .1-.4 1.3-.5 1.5 0 0-.1.1-.1.1h.1.5 1.4 5.4c.1 0 .1.1.1.1v20.4c0 .1-.1.2-.1.2h.1 1.4.4.3c.1 0 .1-.1.1-.2-.1-1.4 0-20.4 0-20.6 0-.1 0-.1.1-.1h3.2 3.2.7c.1 0 .1 0 .1-.1s0-1.3 0-1.3.1-.2 0-.2c-.2 0-7.9 0-8.2 0s-4.7-.1-6.8 0c-.5.1-.9.1-1.1.1zm31.6 22.3c0 .1 0 .1 0 0 .4.1.4 0 .5 0h.9 4.6 2.4 3s.1 0 .1-.1.1-.4.2-.8c.1-.3.2-.6.2-.6 0-.1 0-.1 0-.1s-1.4 0-3.2 0c-1 0-1.9 0-2.9-.1-1.8 0-3.4 0-3.4 0-.1 0-.1 0-.1-.1v-9.1c0-.1 0-.1.1-.1h4.8 2.1 1.2c.1 0 .1-.1.1-.1s0-.4 0-.8c0-.3 0-.6 0-.6s0-.1-.1-.1c-.8 0-1.4 0-1.7 0s-6.3 0-6.4 0-.1 0-.1-.1 0-2.4 0-4.6c0-1 0-3.5 0-3.5 0-.1 0-.1.1-.1h6.4 2s.1 0 .1-.1 0-.3 0-.6 0-.6 0-.6c0-.1.1-.2 0-.2-.5 0-4.6 0-7.5 0-.8 0-1.5 0-1.9 0-.6 0-.9 0-1.2 0-.1 0-.1.1 0 .2v1.4c0 1.1-.1 20.5-.1 20.6-.2.2-.2.2-.2.2zm9.2-29c-.1-.1-.1-.1-.1-.2-.1-.2-.1-.1-.2 0 0 0-.1.1-.1.1-.6.6-4.6 3.8-4.6 3.9 0 0-.1 0-.1.1-.1 0-.1.1 0 .1h.1s.1.2.2.3c.1.2.2.3.3.4v.1s0 .1.1 0c0 0 .1-.1.1-.1.5-.3 5.2-3.3 5.4-3.4.1-.1.3-.1.2-.2 0 0-.1 0-.2-.1-.2-.2-.4-.4-.6-.6-.3-.2-.4-.3-.5-.4zm-88.5 29c-.3 0-1.2 0-1.8 0-.2 0-.3 0-.4 0s-.1-.2-.2-.3c0-.1-3.5-7.7-3.5-7.8-.1-.1-.1-.1-.2-.1 0 0-3 0-4.5 0-2.1 0-4.8 0-4.9 0-.2 0-.2.1-.2.1 0 .1-3.6 7.9-3.7 8-.1.2-.1.1-.2.1-.2 0-.2 0-.5 0-.2 0-1.1 0-1.2 0s0-.1.1-.1c0 0 .1 0 .1-.1s10.5-22.4 10.6-22.5.2-.3.2-.3c.1 0 .1.1.2.3.1.1 10.1 22.3 10.2 22.5.1.3 0 .2-.1.2zm-6.6-9.9c-.1-.1-3.8-8.7-3.9-8.9-.1-.1-.2-.1-.3 0-.1.2-4 8.7-4.1 8.8 0 .1-.1.2.1.2h8c.3.1.3.1.2-.1z"/><path d="m155 0c5.4 0 11.9 3.3 13.8 10.5.3 1.3.5 3 .5 4.5 0 10.3-8.1 16.3-13.4 18.3-.2.1-4.1 1.6-6.8 2-.3 0-.4-.4-.1-.5 2.5-1.3 5-2.5 7.7-4.8 1.9-1.5 7.7-7 7.7-16 0-7.8-4.4-12.2-9.8-12.2-4.7 0-7.6 3.5-8.5 5.3s-1.1 3.4-1.1 4.3c0 .3-.1 3-.1 6.5v21.1c0 2.5.6 4.1 1.3 5.2.8 1.3 1.5 1.9 2.1 2.3.1.1.1.4-.2.4s-.9-.1-1.2-.2c-1.7-.5-3-1.2-4.1-2.8h-.1c-.7 1.2-2 2.3-3.9 2.8 0 0-.9.2-1.4.2-.2 0-.4-.3-.2-.4.5-.4.9-.7 1.4-1.4 2.1-2.6 2-5.4 2-6.2 0-1 0-13.2 0-21 0-3.4-.1-5.7-.1-6.6 0-4.9-4.1-9.6-9.9-9.6-3.2 0-7.1 2.1-8.8 7-.5 1.5-.8 3.1-.8 5.3 0 6.4 3.4 12.6 7.9 16.1 4.1 3.2 6.4 4 7.5 4.5.3.1.4.5-.2.4-1.8-.2-3.7-.7-5.8-1.5-3.6-1.3-7.5-3.8-10.3-7.4-2.6-3.3-3.9-7.2-3.9-11.6 0-10.6 8.5-14.8 14.1-14.8 7.9 0 12.4 6.1 12.4 6.1s4.8-5.8 12.3-5.8"/></g></svg>