<svg enable-background="new 0 0 53.7 47.2" viewBox="0 0 53.7 47.2" xmlns="http://www.w3.org/2000/svg"><path d="m39.1.1c5.4 0 11.9 3.3 13.8 10.5.3 1.3.5 3 .5 4.5 0 10.3-8.1 16.3-13.4 18.3-.2.1-4.1 1.6-6.8 2-.3 0-.4-.4-.1-.5 2.5-1.3 5-2.5 7.7-4.8 1.9-1.5 7.7-7 7.7-16 0-7.7-4.4-12.1-9.8-12.1-4.7 0-7.6 3.5-8.5 5.3s-1.1 3.4-1.1 4.3c0 .3-.1 3-.1 6.5v21.1c0 2.5.6 4.1 1.3 5.2.8 1.3 1.5 1.9 2.1 2.3.1.1.1.4-.2.4s-.9-.1-1.2-.2c-1.7-.5-3-1.2-4.1-2.8h-.1c-.7 1.2-2 2.3-3.9 2.8 0 0-.9.2-1.4.2-.2 0-.4-.3-.2-.4.5-.4.9-.7 1.4-1.4 2.1-2.6 2-5.4 2-6.2 0-1 0-13.2 0-21 0-3.4-.1-5.7-.1-6.6 0-4.9-4.1-9.6-9.9-9.6-3.2 0-7.1 2.1-8.8 7-.5 1.5-.8 3.1-.8 5.3 0 6.4 3.4 12.6 7.9 16.1 4.1 3.2 6.4 4 7.5 4.5.3.1.4.5-.2.4-1.8-.2-3.7-.7-5.8-1.5-3.6-1.3-7.5-3.8-10.3-7.4-2.6-3.3-3.9-7.2-3.9-11.6 0-10.3 8.5-14.5 14.1-14.5 7.9 0 12.4 6.1 12.4 6.1s4.8-6.2 12.3-6.2" fill="#081f2c"/></svg>