<svg viewBox="0 0 285.46 174.57" xmlns="http://www.w3.org/2000/svg"><g fill="#fff"><path d="m30.67 118.77c.15-.12.2-.06.16.09-.55 2.16-4.86 7.07-13 7.07-12.05 0-17.83-9.36-17.83-17.67 0-10.61 8.11-17.26 17.66-17.26a26.29 26.29 0 0 1 11.79 2.87s-.13 7.79-.12 7.94-.06.23-.14.06c-2.18-5.14-6-9.18-11.89-9.18-7.08 0-12.18 6.55-12.18 14 0 9 7.58 16.55 15 16.55a14.4 14.4 0 0 0 10.55-4.47zm253 0-.05-27.67s0-.19-.14-.15c-.91.21-5.92 1.29-6.25 1.35s-.33.17-.21.3a5.42 5.42 0 0 1 1.59 4.32s0 17.26 0 19a4.23 4.23 0 0 1 -.07.57 10.48 10.48 0 0 1 -10.14 7.39c-6.36 0-8.82-5.59-8.74-11.37v-21.17s0-.17-.19-.14l-6.17 1c-.15 0-.16.09-.05.21a5.33 5.33 0 0 1 1.47 3.62v14.34c-.26 14.26 8.79 15.36 13.76 15.36a15.86 15.86 0 0 0 9.91-3.73c.11-.1.15 0 .16.1s.2 2.28.3 3c0 .22 0 .25.22.21 1-.21 5.69-1.13 6.24-1.23.2 0 .17-.19 0-.34s-1.65-1.13-1.65-4.97zm-244.8 1.85.11-46a.08.08 0 0 0 -.09-.09h-.33l-5.44 1-.79.14c-.3.06-.18.31 0 .35a2.6 2.6 0 0 1 .64.45c.82 1.06 1 1.72 1 4v40.75a6.21 6.21 0 0 1 -1.74 4.19c-.1.13-.14.22 0 .22h4.22 4.55c.14 0 .14-.08 0-.21s-2-1.22-2.13-4.8zm78.84-.91c0-2.17-.09-37.82-.09-37.82v-7.41s.05-.23-.2-.18l-7.24 1.24c-.21 0-.2.22 0 .28a5.25 5.25 0 0 1 1 .67c1.29 1.12 1.3 3.48 1.3 4v13.28s0 .33-.26.12a16.83 16.83 0 0 0 -9.6-2.94c-9.28 0-16.57 6.65-16.77 17.12-.2 10.91 7.76 17.78 16.24 17.78 6.36 0 9.22-4.74 9.33-5.76 0-.3-.12-.25-.19-.16a8.55 8.55 0 0 1 -7 3.3c-6.83 0-13.36-5.93-13.36-16.74 0-7 4.16-13.75 11.88-13.75 5.3 0 9.85 4.55 9.85 9.39v19.1a5.61 5.61 0 0 1 -1.76 4.2c-.13.14-.14.21 0 .21h4.26 4.17s.11-.07 0-.21c-.55-.76-1.56-2.15-1.56-5.72zm63.75-28.66a18 18 0 0 0 -9.94 3.07c-.16.11-.22-.06-.23-.19s-.13-2.8-.13-2.8a.13.13 0 0 0 -.16-.13l-6.6 1.27c-.33.07-.18.28 0 .38a2.57 2.57 0 0 1 .35.36 6.29 6.29 0 0 1 1.25 3.99v41.25a5.47 5.47 0 0 1 -1.85 4.24c-.07.05-.12.21 0 .21s2.31.05 4.53.05c2 0 4 0 4.47-.05.12 0 .08-.16 0-.2-1.26-.61-1.91-2.16-1.91-5.73v-36.27a2.11 2.11 0 0 1 .15-.88 10.79 10.79 0 0 1 9.91-6.62c6.36 0 11.53 5.28 11.53 13.7 0 12.09-7.93 16.6-12.68 16.6a10.45 10.45 0 0 1 -7.42-3.15c-.14-.13-.23-.07-.11.22s1.62 5.5 9.42 5.5 15.71-6.65 15.71-18c0-10.76-8.03-16.82-16.29-16.82zm-116.66-11.57c-.68 0-3.94 0-5.52 0a.39.39 0 0 0 -.31.14c-.1.13-5 6.34-7.35 9.16-.08.1 0 .14.05.14h1.63a.23.23 0 0 0 .14-.06c2.2-1.73 11.27-9.15 11.36-9.23s.11-.15 0-.15zm-10.5 39.39c.1.16.2.1.19-.12a14.35 14.35 0 0 1 -.08-5.25c1.26-6.55 6.37-9.42 16.12-14 .18-.08.47-.14.27-.49a14.83 14.83 0 0 0 -2.25-3.18 13.73 13.73 0 0 0 -10.65-4.73c-7.93 0-15.54 5.84-15.54 16.12 0 11.52 8 18.53 16.74 18.53 7.74 0 11.67-4.84 12.19-6.89.06-.23 0-.35-.16-.17s-3.85 4.37-8.86 4.37c-9.1 0-14.76-7.9-14.76-15.89 0-7.56 3.65-14.58 10.33-14.58 5.29 0 7.65 4.91 7.71 5s.06.24-.11.33-.52.25-.77.37c-11.5 5.71-15.44 12.64-10.37 20.58zm78.78 0c.1.16.2.1.2-.12a14 14 0 0 1 -.09-5.25c1.26-6.55 6.37-9.42 16.12-14 .18-.08.47-.14.27-.49a14.83 14.83 0 0 0 -2.25-3.18 13.72 13.72 0 0 0 -10.65-4.77c-7.93 0-15.54 5.84-15.54 16.12 0 11.52 8 18.53 16.74 18.53 7.74 0 11.67-4.84 12.19-6.89.06-.23 0-.35-.16-.17s-3.85 4.37-8.86 4.37c-9.1 0-14.76-7.9-14.76-15.89 0-7.56 3.65-14.58 10.33-14.58 5.29 0 7.66 4.91 7.71 5s.06.24-.1.33l-.78.37c-11.45 5.75-15.45 12.68-10.37 20.62zm90.51 3.49a9.82 9.82 0 0 1 -3.6.7c-9.09 0-14.76-7.9-14.76-15.89 0-7.56 3.65-14.58 10.33-14.58 5.29 0 7.66 4.91 7.71 5s.06.24-.1.33l-.78.37c-11.5 5.71-15.39 12.64-10.39 20.58.1.16.2.1.2-.12a14 14 0 0 1 -.09-5.25c1.26-6.55 6.37-9.42 16.13-14 .18-.08.46-.14.26-.49a14.83 14.83 0 0 0 -2.25-3.18 13.72 13.72 0 0 0 -10.65-4.77c-7.93 0-15.54 5.84-15.54 16.12 0 11.52 8 18.53 16.75 18.53a15.07 15.07 0 0 0 8-2.16c.09-.06.13-.07.18 0a12 12 0 0 0 7.32 2.44c8.46 0 10.5-5.57 10.71-7.08 0-.29-.19-.21-.27 0s-2.51 4.37-9 4.37c-5.85 0-7-4.56-7-6.08 0-.9.05-5.31 6.82-6.35 3.89-.6 7.48-1.24 10.3-3.13a.14.14 0 0 1 .22.11v17.71c0 .35.08.35.27.3l6.89-1.53c.13 0 .1-.12 0-.16-1.24-.44-2.14-1.84-2.14-4.78 0-.5 0-8.18 0-11.54 0-2.3 0-4.67-.16-7-.17-2.5-.82-5.33-2.91-7.17a9.7 9.7 0 0 0 -6.61-2.58 12.34 12.34 0 0 0 -7.61 2.56.2.2 0 0 0 0 .29l1.73 2.42s.09.14.17 0c.51-.68 1.95-3.37 5.35-3.37 2.17 0 5.41.54 5.41 6.17a11.94 11.94 0 0 1 -.5 4.17c-1 2.52-2.14 3.77-9.41 4.4a26.16 26.16 0 0 0 -8.28 1.78 7.77 7.77 0 0 0 -4.47 7.28 9.09 9.09 0 0 0 1.67 5.21c.14.13.24.32.1.37zm-165.22 52.17h1.63 3.13a9.34 9.34 0 0 0 4.22-.79 6.32 6.32 0 0 0 1.71-10 6.62 6.62 0 0 0 -2.38-1.49c-.08 0-.07-.09 0-.14a5.77 5.77 0 0 0 2.52-4.69 5.1 5.1 0 0 0 -2.87-4.7 9.83 9.83 0 0 0 -3.85-.55c-1.3 0-2.09 0-3 0a9.3 9.3 0 0 1 -1 0c-.1 0-.12 0-.11.13s0 .65 0 1.45 0 20.44 0 20.5a1.85 1.85 0 0 1 0 .25c-.06.03-.02.03 0 .03zm1.8-20.8c0-.13.06-.18.17-.18s1.95 0 2.67 0c2.13-.07 4.33.93 4.33 4.17a5 5 0 0 1 -2.15 4 .69.69 0 0 1 -.51.19h-4.38c-.11 0-.13-.07-.13-.26zm6.63 18.48c-1.24.9-3.67 1-4.23 1h-2.3c-.12 0-.11-.12-.11-.19s0-9.47 0-9.69c0-.06 0-.08.09-.08s3.08-.13 4.43 0a4.48 4.48 0 0 1 4.16 4.8 5.3 5.3 0 0 1 -2.04 4.16zm82.86-20.11h.81.84c.08 0 .09 0 .09.07v1.55 10.86a15 15 0 0 0 .78 5.14c.82 1.93 3 3.47 6.27 3.47 4.84 0 6.5-2.64 6.94-5.09a21.43 21.43 0 0 0 .27-3.52v-12.25c0-.1-.06-.23.05-.23s.34 0 .71 0h.55c.09 0 .13 0 .12.1a.79.79 0 0 0 0 .16v12.23a15.24 15.24 0 0 1 -.79 5.51c-.95 2.62-3.85 4.47-7.83 4.47a8.73 8.73 0 0 1 -7.13-3.11c-1.77-2.38-1.75-6.52-1.75-6.88 0-1.4 0-8 0-10.85v-1.52c-.04-.08-.03-.12.07-.11zm-61.16 22.22s.07-20 .08-21.12a3.81 3.81 0 0 0 0-.8c0-.11 0-.29.13-.28a8.62 8.62 0 0 0 1.1 0h1.93 7.28c.1 0 0 .14 0 .19s0 .24 0 .58 0 .53 0 .6 0 .09-.09.08c-.5 0-1.38-.06-2-.06-2.46 0-6.44 0-6.49 0s-.06 0-.06.08 0 2.72 0 3.68v4.81s0 .09.09.09h6.51 1.65a.07.07 0 0 1 .08.08s0 .33 0 .63a4.19 4.19 0 0 0 0 .57c0 .05 0 .13-.09.12-.31 0-.59 0-1.16 0h-2.06-4.93c-.07 0-.08 0-.08.09s0 9.37 0 9.37 0 .09.09.09 1.32 0 2.79 0h3.69 2.94c.08 0 .07.07.05.13s-.12.36-.2.66-.11.39-.15.53a.1.1 0 0 1 -.09.06c-.3 0-1.17 0-2.7 0h-2.36c-1.72 0-3.53 0-4.65 0h-1.27s-.08 0-.08-.06.05-.05.05-.12zm126.53 0s.07-20 .08-21.12a3.81 3.81 0 0 0 0-.8c0-.11 0-.29.13-.28a8.62 8.62 0 0 0 1.1 0h1.93 7.28c.1 0 0 .14 0 .19a5 5 0 0 0 0 .58v.6s0 .09-.09.08c-.5 0-1.38-.06-2-.06-2.46 0-6.44 0-6.49 0s-.07 0-.07.08 0 2.72 0 3.68v4.81s0 .09.09.09h6.51 1.64c.09 0 .09.06.09.08s0 .33 0 .63a4.19 4.19 0 0 0 0 .57c0 .05 0 .13-.1.12-.3 0-.59 0-1.15 0h-2.07-4.93c-.07 0-.09 0-.09.09s0 9.34 0 9.34 0 .09.09.09 2.08 0 3.84 0h5.58c.08 0 .07.07.05.13s-.13.36-.21.66-.1.39-.14.53a.1.1 0 0 1 -.09.06c-.3 0-1.18 0-2.71 0h-2.35c-1.72 0-3.53 0-4.65 0h-1.25c-.05 0-.08 0-.08-.06s.03-.02.03-.09zm-30.34-22.18h6.5 8.44c.12 0 .08.09.08.14a9.36 9.36 0 0 0 0 1.19c0 .08 0 .08-.1.08h-1-3.21c-1.59 0-3.3 0-3.35 0a.12.12 0 0 0 -.12.13v20.76c0 .06 0 .16-.09.16h-1.76s0 0 0-.05 0-.06 0-.2v-20.71a.12.12 0 0 0 -.11-.13c-.05 0-3.33 0-5.31 0h-1.84c-.05 0-.08 0-.08 0a.45.45 0 0 1 .06-.12 9.13 9.13 0 0 0 .35-1.16c0-.13.05-.07.17 0a12.54 12.54 0 0 0 1.37-.09zm39.31-6.14c.16.16.28.31.47.51s.17.07.17.12-.12.11-.2.16-4.73 3.08-5.2 3.41l-.08.07c-.05.06-.08 0-.09 0a.59.59 0 0 0 0-.08l-.17-.22a1.6 1.6 0 0 0 -.19-.25s-.06 0-.06 0 0-.08 0-.1l.09-.06c.08-.06 3.87-3.29 4.51-3.88a.53.53 0 0 0 .13-.13c.05-.07.07-.12.13-.12s.12.15.19.23zm-88.9 28.38c0-.09-2.48-5.51-4.91-11-2.5-5.64-5-11.33-5-11.39s-.12-.25-.22-.25-.17.18-.23.3-10.06 22.17-10.1 22.24 0 .07-.07.09a.08.08 0 0 0 -.05.07s0 .05 0 .05h.88a3.48 3.48 0 0 1 .45 0c.12 0 .12 0 .19-.12l3.65-8.18a.18.18 0 0 1 .2-.14h5.18 4.13c.11 0 .13 0 .2.14s3.51 7.91 3.55 8 .07.27.18.27a1.11 1.11 0 0 1 .38 0h1.47c.11.02.19.07.11-.12zm-6.47-9.47h-8.08c-.2 0-.15-.16-.12-.23s4-9 4.08-9.13.21-.18.28 0 3.9 9 4 9.17-.04.15-.17.15z"/><path d="m155 0a14.18 14.18 0 0 1 13.8 10.53 19.38 19.38 0 0 1 .5 4.54c0 10.26-8.08 16.31-13.4 18.35a34.74 34.74 0 0 1 -6.84 2c-.32 0-.38-.36-.09-.5a39.85 39.85 0 0 0 7.72-4.77 21 21 0 0 0 7.73-16c0-7.84-4.39-12.25-9.8-12.25a9.94 9.94 0 0 0 -8.51 5.29 9.34 9.34 0 0 0 -1.08 4.3c0 .3-.13 2.95-.15 6.51v21.11a9.19 9.19 0 0 0 1.3 5.19 8.56 8.56 0 0 0 2.09 2.3c.13.1.11.38-.22.38a5.25 5.25 0 0 1 -1.19-.16 6.87 6.87 0 0 1 -4.09-2.82s-.06 0-.08 0a6.5 6.5 0 0 1 -3.93 2.82 9.06 9.06 0 0 1 -1.38.21c-.23 0-.36-.25-.22-.36a8.12 8.12 0 0 0 1.41-1.36 9.31 9.31 0 0 0 2-6.21c0-1 0-13.21 0-21 0-3.45-.15-5.74-.15-6.57a9.78 9.78 0 0 0 -9.87-9.56c-3.25 0-7.12 2.05-8.77 7a15.76 15.76 0 0 0 -.81 5.26 21.12 21.12 0 0 0 7.9 16.15 32.28 32.28 0 0 0 7.49 4.54c.28.14.39.51-.23.44a26.12 26.12 0 0 1 -5.78-1.47 23.52 23.52 0 0 1 -10.31-7.38 18.5 18.5 0 0 1 -3.9-11.61 14.22 14.22 0 0 1 14.14-14.9 16.65 16.65 0 0 1 12.45 6.07s4.72-6.07 12.27-6.07"/></g></svg>