<svg xmlns="http://www.w3.org/2000/svg" viewBox="0 0 25.16 20.64" width="25.13" height="20.64"><defs><style>.cls-1{fill:#979797;}</style></defs><title>icon_social_weibo_small</title><g id="レイヤー_2" data-name="レイヤー 2"><g id="レイヤー_1-2" data-name="レイヤー 1"><g id="レイヤー_2-2" data-name="レイヤー 2"><g id="レイヤー_1-2-2" data-name="レイヤー 1-2"><path class="cls-1" d="M20.36,10.56a7,7,0,0,0-1.44-.67l-.24-.09a.42.42,0,0,1-.17-.1.16.16,0,0,1-.07-.18,1.37,1.37,0,0,0,.07-.29,2.66,2.66,0,0,0,0-2.54,2.54,2.54,0,0,0-2.15-.87,9,9,0,0,0-3.46.84h-.27a.38.38,0,0,1-.21,0,.15.15,0,0,1-.14-.1.48.48,0,0,1,0-.29c.42-1.37.32-2.37-.28-3s-1.85-.74-3.47-.1a14.3,14.3,0,0,0-4.8,3.37A16.17,16.17,0,0,0,1,10.33a7.45,7.45,0,0,0-1,3.5,4.79,4.79,0,0,0,.91,2.85,7.11,7.11,0,0,0,2.41,2.15A12.93,12.93,0,0,0,6.7,20.16a14.82,14.82,0,0,0,3.87.48,15.67,15.67,0,0,0,3.8-.44A12.41,12.41,0,0,0,17.54,19a10.91,10.91,0,0,0,2.37-1.67,6.66,6.66,0,0,0,1.53-2,4.35,4.35,0,0,0,.52-2,3,3,0,0,0-.47-1.66,3.79,3.79,0,0,0-1.13-1.16Zm-4.59,6.55a9.46,9.46,0,0,1-5.19,2,10.48,10.48,0,0,1-3.86-.3,6.73,6.73,0,0,1-2.93-1.56,3.79,3.79,0,0,1-1.25-2.43,4.3,4.3,0,0,1,1.87-3.77,9.65,9.65,0,0,1,5.19-2,10.87,10.87,0,0,1,3.85.3,7.13,7.13,0,0,1,2.94,1.55,3.84,3.84,0,0,1,1.25,2.43A4.29,4.29,0,0,1,15.77,17.11ZM11,11.19a4.44,4.44,0,0,0-3,.27,4.19,4.19,0,0,0-2.13,2,3.05,3.05,0,0,0-.09,2.67,3.14,3.14,0,0,0,2.07,1.81A4.34,4.34,0,0,0,11,17.77a4.07,4.07,0,0,0,2.22-2.15,3,3,0,0,0,0-2.71A3.32,3.32,0,0,0,11,11.2M9.27,16.13a1.7,1.7,0,0,1-.88.68,1.37,1.37,0,0,1-1.05,0,1.06,1.06,0,0,1-.6-.72,1.15,1.15,0,0,1,.18-1,1.53,1.53,0,0,1,.84-.66,1.43,1.43,0,0,1,1,0,1,1,0,0,1,.63.71A1.23,1.23,0,0,1,9.27,16.13Zm1.32-1.72a.61.61,0,0,1-.31.26.58.58,0,0,1-.41,0,.41.41,0,0,1-.26-.51A.35.35,0,0,1,9.69,14a.45.45,0,0,1,.3-.27.55.55,0,0,1,.4,0,.4.4,0,0,1,.25.26A.48.48,0,0,1,10.59,14.41Zm9.48-6.58a.83.83,0,0,0,.48.42.77.77,0,0,0,.63-.06.73.73,0,0,0,.41-.48A3.11,3.11,0,0,0,21.68,6a3.25,3.25,0,0,0-.77-1.55,3.07,3.07,0,0,0-1.41-.93,3.3,3.3,0,0,0-1.68-.08.87.87,0,0,0-.52.36.85.85,0,0,0-.11.64.82.82,0,0,0,1,.64,1.52,1.52,0,0,1,1.51.5A1.52,1.52,0,0,1,20,7.19a.89.89,0,0,0,.05.64M25,5.41a6.77,6.77,0,0,0-1.6-3.18A6.42,6.42,0,0,0,20.47.31,6.62,6.62,0,0,0,17.05.15a1,1,0,0,0-.62.42,1,1,0,0,0,.29,1.36.86.86,0,0,0,.73.13,4.77,4.77,0,0,1,2.43.12A4.86,4.86,0,0,1,23.09,5.8,4.66,4.66,0,0,1,23,8.26a1,1,0,1,0,1.84.61h0A6.56,6.56,0,0,0,25,5.41"/></g></g></g></g></svg>