<svg height="19" viewBox="0 0 19 19" width="19" xmlns="http://www.w3.org/2000/svg"><path d="m3063.96 2260.94-.92-.69a1.409 1.409 0 0 1 -.66-1.07 1.742 1.742 0 0 1 .72-1.21c1.06-.82 2.13-1.69 2.13-3.52a4.157 4.157 0 0 0 -1.8-3.34h1.57l1.65-1.01h-5a7.935 7.935 0 0 0 -4.81 1.48 4.4 4.4 0 0 0 -1.62 3.32 3.963 3.963 0 0 0 4.22 3.88 7.813 7.813 0 0 0 .81-.05 2.167 2.167 0 0 0 -.25.97 2.521 2.521 0 0 0 .76 1.68 11.284 11.284 0 0 0 -4.86 1.14 3.568 3.568 0 0 0 -1.95 3.02c0 1.83 1.78 3.54 5.46 3.54 4.37 0 6.68-2.35 6.68-4.68 0-1.71-1.01-2.55-2.13-3.46zm-3.33-2.85c-2.18 0-3.17-2.75-3.17-4.41a2.811 2.811 0 0 1 .55-1.83 2.432 2.432 0 0 1 1.78-.82c2.11 0 3.2 2.78 3.2 4.56a2.472 2.472 0 0 1 -.63 1.81 2.666 2.666 0 0 1 -1.73.69zm.03 9.96c-2.72 0-4.47-1.27-4.47-3.03a2.817 2.817 0 0 1 2.18-2.55 10.657 10.657 0 0 1 2.67-.39 5.154 5.154 0 0 1 .58.02c1.93 1.34 2.77 2.01 2.77 3.27 0 1.53-1.29 2.68-3.73 2.68zm9.72-10v-2.47h-1.26v2.47h-2.54v1.24h2.54v2.49h1.26v-2.49h2.55v-1.24z" transform="translate(-3053.94 -2250.09)"/></svg>