<svg xmlns="http://www.w3.org/2000/svg" viewBox="0 0 25.13 20.64"  width="25.13" height="20.64"><title>icon_social_weibo_large</title><g id="レイヤー_2" data-name="レイヤー 2"><g id="レイヤー_1-2" data-name="レイヤー 1"><path d="M20.36,10.56a6.75,6.75,0,0,0-1.44-.67l-.24-.09a.42.42,0,0,1-.17-.1.16.16,0,0,1-.07-.18,1.37,1.37,0,0,0,.07-.29,2.66,2.66,0,0,0,0-2.54,2.54,2.54,0,0,0-2.15-.87,9,9,0,0,0-3.46.84l-.08,0a.67.67,0,0,1-.19,0,.38.38,0,0,1-.21,0,.16.16,0,0,1-.14-.1.42.42,0,0,1,0-.29c.42-1.37.32-2.37-.28-3s-1.85-.74-3.47-.1a14.3,14.3,0,0,0-4.8,3.37A16,16,0,0,0,1,10.33a7.46,7.46,0,0,0-1,3.5,4.84,4.84,0,0,0,.91,2.85,7.2,7.2,0,0,0,2.41,2.15A13.29,13.29,0,0,0,6.7,20.16a14.82,14.82,0,0,0,3.87.48,15.67,15.67,0,0,0,3.8-.44A12.52,12.52,0,0,0,17.54,19a11.15,11.15,0,0,0,2.37-1.67,6.83,6.83,0,0,0,1.53-2,4.31,4.31,0,0,0,.52-2,3,3,0,0,0-.47-1.66,3.79,3.79,0,0,0-1.13-1.16Zm-4.59,6.55a9.49,9.49,0,0,1-5.19,2,10.48,10.48,0,0,1-3.86-.3,6.78,6.78,0,0,1-2.93-1.56,3.79,3.79,0,0,1-1.25-2.43,4.3,4.3,0,0,1,1.87-3.77,9.64,9.64,0,0,1,5.19-2,10.85,10.85,0,0,1,3.85.3,7,7,0,0,1,2.94,1.55,3.84,3.84,0,0,1,1.25,2.43A4.28,4.28,0,0,1,15.77,17.11ZM11,11.19a4.38,4.38,0,0,0-3,.27,4.22,4.22,0,0,0-2.13,2,3.05,3.05,0,0,0-.09,2.67,3.17,3.17,0,0,0,2.07,1.81A4.39,4.39,0,0,0,11,17.77a4.07,4.07,0,0,0,2.22-2.15,3,3,0,0,0,0-2.71A3.31,3.31,0,0,0,11,11.2M9.27,16.13a1.7,1.7,0,0,1-.88.68,1.37,1.37,0,0,1-1.05,0,1.06,1.06,0,0,1-.6-.72,1.14,1.14,0,0,1,.18-1,1.53,1.53,0,0,1,.84-.66,1.36,1.36,0,0,1,1,0,1,1,0,0,1,.63.71A1.25,1.25,0,0,1,9.27,16.13Zm1.32-1.72a.61.61,0,0,1-.31.26.64.64,0,0,1-.41,0,.41.41,0,0,1-.26-.51A.35.35,0,0,1,9.69,14a.47.47,0,0,1,.3-.27.55.55,0,0,1,.4,0,.4.4,0,0,1,.25.26A.46.46,0,0,1,10.59,14.41Zm9.48-6.58a.86.86,0,0,0,.48.42.77.77,0,0,0,.63-.06.75.75,0,0,0,.41-.48A3.1,3.1,0,0,0,21.68,6a3.2,3.2,0,0,0-.77-1.55,3.07,3.07,0,0,0-1.41-.93,3.19,3.19,0,0,0-1.68-.08.87.87,0,0,0-.52.36.85.85,0,0,0-.11.64.77.77,0,0,0,.35.52.76.76,0,0,0,.63.12,1.51,1.51,0,0,1,1.51.5A1.52,1.52,0,0,1,20,7.19a.88.88,0,0,0,.05.64M25,5.41A6.74,6.74,0,0,0,23.4,2.23,6.42,6.42,0,0,0,20.47.31,6.61,6.61,0,0,0,17.05.15a1,1,0,0,0-.62.42,1,1,0,0,0,.29,1.36.87.87,0,0,0,.73.13,4.77,4.77,0,0,1,2.43.12A4.84,4.84,0,0,1,23.09,5.8,4.67,4.67,0,0,1,23,8.26a1,1,0,0,0,.63,1.23,1,1,0,0,0,1.21-.62h0A6.52,6.52,0,0,0,25,5.41"/></g></g></svg>