<svg height="19.81" viewBox="0 0 19.82 19.81" width="19.82" xmlns="http://www.w3.org/2000/svg"><path d="m2884.75 2249.78c2.64 0 2.96.01 4 .06a5.793 5.793 0 0 1 1.84.34 3.265 3.265 0 0 1 1.88 1.88 5.793 5.793 0 0 1 .34 1.84c.05 1.04.06 1.36.06 4s-.01 2.96-.06 4a5.793 5.793 0 0 1 -.34 1.84 3.265 3.265 0 0 1 -1.88 1.88 5.793 5.793 0 0 1 -1.84.34c-1.04.05-1.36.06-4 .06s-2.96-.01-4-.06a5.793 5.793 0 0 1 -1.84-.34 3.265 3.265 0 0 1 -1.88-1.88 5.793 5.793 0 0 1 -.34-1.84c-.05-1.04-.06-1.36-.06-4s.01-2.96.06-4a5.793 5.793 0 0 1 .34-1.84 3.265 3.265 0 0 1 1.88-1.88 5.793 5.793 0 0 1 1.84-.34c1.04-.05 1.36-.06 4-.06m0-1.78c-2.69 0-3.03.01-4.08.06a7.2 7.2 0 0 0 -2.41.46 5.036 5.036 0 0 0 -2.89 2.9 7.078 7.078 0 0 0 -.46 2.4c-.05 1.05-.06 1.39-.06 4.08s.01 3.03.06 4.08a7.078 7.078 0 0 0 .46 2.4 5.036 5.036 0 0 0 2.89 2.9 7.2 7.2 0 0 0 2.41.46c1.05.05 1.39.06 4.08.06s3.03-.01 4.08-.06a7.13 7.13 0 0 0 2.4-.46 5.015 5.015 0 0 0 2.9-2.9 7.331 7.331 0 0 0 .46-2.4c.05-1.05.06-1.39.06-4.08s-.01-3.03-.06-4.08a7.331 7.331 0 0 0 -.46-2.4 5.015 5.015 0 0 0 -2.9-2.9 7.13 7.13 0 0 0 -2.4-.46c-1.05-.05-1.39-.06-4.08-.06zm0 4.82a5.08 5.08 0 1 0 5.08 5.08 5.074 5.074 0 0 0 -5.08-5.08zm0 8.38a3.3 3.3 0 1 1 3.3-3.3 3.3 3.3 0 0 1 -3.3 3.3zm6.47-8.58a1.185 1.185 0 1 1 -1.19-1.19 1.184 1.184 0 0 1 1.19 1.19z" transform="translate(-2874.84 -2248)"/></svg>