<svg height="18" viewBox="0 0 21 18" width="21" xmlns="http://www.w3.org/2000/svg"><path d="m2999.95 2267.89c7.93 0 12.26-6.92 12.26-12.92 0-.2 0-.39-.01-.59a9.11 9.11 0 0 0 2.15-2.35 8.283 8.283 0 0 1 -2.47.72 4.6 4.6 0 0 0 1.89-2.52 8.451 8.451 0 0 1 -2.74 1.11 4.162 4.162 0 0 0 -3.14-1.44 4.428 4.428 0 0 0 -4.31 4.54 5.022 5.022 0 0 0 .11 1.04 12.045 12.045 0 0 1 -8.88-4.75 4.708 4.708 0 0 0 -.58 2.28 4.639 4.639 0 0 0 1.91 3.79 4.215 4.215 0 0 1 -1.95-.57v.06a4.494 4.494 0 0 0 3.46 4.45 4.242 4.242 0 0 1 -1.14.16 4.447 4.447 0 0 1 -.81-.08 4.345 4.345 0 0 0 4.03 3.15 8.368 8.368 0 0 1 -5.35 1.95 7.036 7.036 0 0 1 -1.03-.07 11.735 11.735 0 0 0 6.6 2.04" transform="translate(-2993.34 -2249.91)"/></svg>