<svg height="19" viewBox="0 0 19 19" width="19" xmlns="http://www.w3.org/2000/svg"><path d="m2888.5 2309h-8a5.51 5.51 0 0 1 -5.5-5.5v-8a5.51 5.51 0 0 1 5.5-5.5h8a5.51 5.51 0 0 1 5.5 5.5v8a5.51 5.51 0 0 1 -5.5 5.5zm-8-18a4.507 4.507 0 0 0 -4.5 4.5v8a4.507 4.507 0 0 0 4.5 4.5h8a4.507 4.507 0 0 0 4.5-4.5v-8a4.507 4.507 0 0 0 -4.5-4.5zm4 13.17a4.67 4.67 0 1 1 4.67-4.67 4.682 4.682 0 0 1 -4.67 4.67zm0-8.34a3.67 3.67 0 1 0 3.67 3.67 3.679 3.679 0 0 0 -3.67-3.67zm6.28-1.68a1.1 1.1 0 1 1 -1.1-1.1 1.095 1.095 0 0 1 1.1 1.1z" fill="#505150" fill-rule="evenodd" transform="translate(-2875 -2290)"/></svg>