<svg height="14.4" viewBox="0 0 16.81 14.4" width="16.81" xmlns="http://www.w3.org/2000/svg"><path d="m2995.06 2208.84c6.34 0 9.81-5.53 9.81-10.34 0-.15 0-.31-.01-.47a7.189 7.189 0 0 0 1.72-1.88 6.361 6.361 0 0 1 -1.98.57 3.639 3.639 0 0 0 1.52-2.01 6.874 6.874 0 0 1 -2.19.89 3.365 3.365 0 0 0 -2.52-1.15 3.55 3.55 0 0 0 -3.45 3.63 3.77 3.77 0 0 0 .09.83 9.621 9.621 0 0 1 -7.1-3.8 3.744 3.744 0 0 0 -.47 1.83 3.7 3.7 0 0 0 1.54 3.03 3.378 3.378 0 0 1 -1.57-.46v.05a3.588 3.588 0 0 0 2.77 3.56 3.391 3.391 0 0 1 -.91.13 3.5 3.5 0 0 1 -.65-.07 3.478 3.478 0 0 0 3.22 2.53 6.7 6.7 0 0 1 -4.28 1.55 7.368 7.368 0 0 1 -.82-.05 9.416 9.416 0 0 0 5.28 1.63" fill="#979797" fill-rule="evenodd" transform="translate(-2989.78 -2194.44)"/></svg>