<svg height="15.19" viewBox="0 0 15.19 15.19" width="15.19" xmlns="http://www.w3.org/2000/svg"><path d="m3046.27 2203.28-.73-.56a1.063 1.063 0 0 1 -.53-.85 1.383 1.383 0 0 1 .57-.97 3.342 3.342 0 0 0 1.7-2.81 3.285 3.285 0 0 0 -1.44-2.67h1.26l1.32-.81h-4a6.315 6.315 0 0 0 -3.84 1.18 3.494 3.494 0 0 0 -1.3 2.65 3.179 3.179 0 0 0 3.37 3.12c.2 0 .43-.02.65-.04a1.709 1.709 0 0 0 -.2.77 2.007 2.007 0 0 0 .61 1.34 8.873 8.873 0 0 0 -3.89.92 2.825 2.825 0 0 0 -1.56 2.41c0 1.47 1.42 2.83 4.37 2.83 3.5 0 5.35-1.88 5.35-3.74 0-1.37-.82-2.04-1.71-2.77zm-2.66-2.28c-1.75 0-2.55-2.2-2.55-3.52a2.289 2.289 0 0 1 .45-1.47 1.924 1.924 0 0 1 1.43-.65c1.68 0 2.56 2.21 2.56 3.64a1.97 1.97 0 0 1 -.51 1.45 2.161 2.161 0 0 1 -1.38.55zm.02 7.96c-2.18 0-3.58-1.01-3.58-2.41a2.233 2.233 0 0 1 1.75-2.04 8.233 8.233 0 0 1 2.13-.32 3.393 3.393 0 0 1 .47.02c1.54 1.07 2.21 1.6 2.21 2.61 0 1.23-1.03 2.14-2.98 2.14zm7.77-7.99v-1.98h-1v1.98h-2.04v.99h2.04v1.99h1v-1.99h2.05v-.99z" fill="#979797" fill-rule="evenodd" transform="translate(-3038.25 -2194.59)"/></svg>