<svg height="15.84" viewBox="0 0 15 15.84" width="15" xmlns="http://www.w3.org/2000/svg"><path d="m2902.48 2194.36c2 0 2.24 0 3.03.04a4.276 4.276 0 0 1 1.39.27 2.6 2.6 0 0 1 1.42 1.51 4.31 4.31 0 0 1 .26 1.47c.04.83.04 1.08.04 3.2s0 2.36-.04 3.2a4.31 4.31 0 0 1 -.26 1.47 2.44 2.44 0 0 1 -.56.91 2.211 2.211 0 0 1 -.86.59 3.788 3.788 0 0 1 -1.39.27c-.79.04-1.03.05-3.03.05s-2.24-.01-3.03-.05a3.788 3.788 0 0 1 -1.39-.27 2.321 2.321 0 0 1 -.87-.59 2.576 2.576 0 0 1 -.56-.91 4.884 4.884 0 0 1 -.26-1.47c-.03-.84-.04-1.09-.04-3.2s.01-2.37.04-3.2a4.884 4.884 0 0 1 .26-1.47 2.577 2.577 0 0 1 1.43-1.51 4.276 4.276 0 0 1 1.39-.27c.79-.04 1.03-.04 3.03-.04m0-1.43c-2.04 0-2.29.01-3.09.05a5.162 5.162 0 0 0 -1.82.36 3.67 3.67 0 0 0 -1.33.92 3.854 3.854 0 0 0 -.87 1.4 6.338 6.338 0 0 0 -.35 1.92c-.03.85-.04 1.12-.04 3.27s.01 2.42.04 3.26a6.411 6.411 0 0 0 .35 1.93 3.854 3.854 0 0 0 .87 1.4 3.522 3.522 0 0 0 1.33.91 5.138 5.138 0 0 0 1.82.37c.8.04 1.05.05 3.09.05s2.29-.01 3.09-.05a5.188 5.188 0 0 0 1.82-.37 3.683 3.683 0 0 0 1.33-.91 3.965 3.965 0 0 0 .86-1.4 6.113 6.113 0 0 0 .35-1.93c.04-.84.05-1.11.05-3.26s-.01-2.42-.05-3.27a6.043 6.043 0 0 0 -.35-1.92 3.965 3.965 0 0 0 -.86-1.4 3.846 3.846 0 0 0 -1.33-.92 5.211 5.211 0 0 0 -1.82-.36c-.8-.04-1.06-.05-3.09-.05zm0 3.85a4.076 4.076 0 1 0 3.85 4.07 3.961 3.961 0 0 0 -3.85-4.07zm0 6.71a2.644 2.644 0 1 1 2.5-2.64 2.572 2.572 0 0 1 -2.5 2.64zm4.9-6.87a.9.9 0 1 1 -.9-.95.921.921 0 0 1 .9.95z" fill="#505050" fill-rule="evenodd" transform="translate(-2894.97 -2192.94)"/></svg>