<svg height="9.9" viewBox="0 0 59 9.9" width="59" xmlns="http://www.w3.org/2000/svg"><g fill-rule="evenodd" transform="translate(-2548 -2110.19)"><g fill="#081f2c"><path d="m2553 2110.19-1.18 3.79h-3.82l3.09 2.34-1.18 3.78 3.09-2.34 3.09 2.34-1.18-3.78 3.09-2.34h-3.82z"/><path d="m2565 2110.19-1.18 3.79h-3.82l3.09 2.34-1.18 3.78 3.09-2.34 3.09 2.34-1.18-3.78 3.09-2.34h-3.82z"/><path d="m2578 2110.19-1.18 3.79h-3.82l3.09 2.34-1.18 3.78 3.09-2.34 3.09 2.34-1.18-3.78 3.09-2.34h-3.82z"/><path d="m2590 2110.19-1.18 3.79h-3.82l3.09 2.34-1.18 3.78 3.09-2.34 3.09 2.34-1.18-3.78 3.09-2.34h-3.82z"/></g><path d="m2602 2110.19-1.18 3.79h-3.82l3.09 2.34-1.18 3.78 3.09-2.34 3.09 2.34-1.18-3.78 3.09-2.34h-3.82z" fill="#979797"/></g></svg>