<svg height="14" viewBox="0 0 88 14" width="88" xmlns="http://www.w3.org/2000/svg"><g fill-rule="evenodd" transform="translate(-2548 -2078)"><g fill="#081f2c"><path d="m2555.5 2077.99-1.77 5.35h-5.73l4.64 3.31-1.78 5.35 4.64-3.31 4.63 3.31-1.77-5.35 4.64-3.31h-5.73z"/><path d="m2573.5 2077.99-1.77 5.35h-5.73l4.64 3.31-1.77 5.35 4.63-3.31 4.63 3.31-1.77-5.35 4.64-3.31h-5.73z"/><path d="m2592.5 2077.99-1.77 5.35h-5.73l4.64 3.31-1.78 5.35 4.64-3.31 4.64 3.31-1.78-5.35 4.64-3.31h-5.73z"/><path d="m2610.5 2077.99-1.77 5.35h-5.73l4.64 3.31-1.77 5.35 4.63-3.31 4.63 3.31-1.77-5.35 4.64-3.31h-5.73z"/></g><path d="m2628.5 2077.99-1.77 5.35h-5.73l4.64 3.31-1.78 5.35 4.64-3.31 4.64 3.31-1.78-5.35 4.64-3.31h-5.73z" fill="#979797"/></g></svg>