<svg height="13" viewBox="0 0 13 13" width="13" xmlns="http://www.w3.org/2000/svg"><path d="m2547.53 2216.21a.453.453 0 0 1 .45.49.487.487 0 0 1 -.48.51.454.454 0 0 1 -.48-.49.5.5 0 0 1 .5-.51zm.4 6.28a.2.2 0 0 1 -.21.25 4.544 4.544 0 0 1 -.66.05c.01-.41.03-.99.03-1.57v-1.7c0-.61-.02-.92-.04-1.13a3.281 3.281 0 0 1 .74-.1c.1 0 .14.05.14.62zm-.43 3.51a6.5 6.5 0 1 1 6.5-6.5 6.513 6.513 0 0 1 -6.5 6.5zm0-12a5.5 5.5 0 1 0 5.5 5.5 5.51 5.51 0 0 0 -5.5-5.5z" fill="#969696" fill-rule="evenodd" transform="translate(-2541 -2213)"/></svg>